<svg width="139" height="42" viewBox="0 0 139 42" fill="none" xmlns="http://www.w3.org/2000/svg">
<g id="Group">
<path id="BG" d="M138.228 36.4272C138.228 38.6122 136.458 40.382 134.27 40.382H4.73559C2.54794 40.382 0.772217 38.6122 0.772217 36.4272V4.88914C0.772217 2.70524 2.54794 0.929199 4.73559 0.929199H134.269C136.458 0.929199 138.227 2.70524 138.227 4.88914L138.228 36.4272Z" fill="black"/>
<path id="Border" d="M133.852 0.976803C136.235 0.976803 138.175 2.90765 138.175 5.28052V36.0305C138.175 38.4034 136.235 40.3342 133.852 40.3342H5.14815C2.76456 40.3342 0.82499 38.4034 0.82499 36.0305V5.28052C0.82499 2.90765 2.76456 0.976803 5.14815 0.976803H133.852ZM133.852 0.155521H5.14815C2.31795 0.155521 0 2.46305 0 5.28052V36.0305C0 38.848 2.31795 41.1555 5.14815 41.1555H133.852C136.682 41.1555 139 38.848 139 36.0305V5.28052C139 2.46305 136.682 0.155521 133.852 0.155521Z" fill="#A6A6A6"/>
<g id="Icon">
<g id="Vector">
<path d="M31.0207 20.434C30.9908 17.1304 33.7378 15.5232 33.8635 15.4484C32.3077 13.1903 29.8963 12.8818 29.0489 12.8572C27.0236 12.645 25.0591 14.0636 24.0274 14.0636C22.9751 14.0636 21.3864 12.8777 19.6741 12.9126C17.4707 12.9464 15.4094 14.2164 14.2789 16.1885C11.9457 20.2095 13.6858 26.1187 15.9211 29.3689C17.0393 30.9608 18.3459 32.7381 20.0561 32.6756C21.7293 32.6069 22.3543 31.6137 24.3734 31.6137C26.3739 31.6137 26.9608 32.6756 28.705 32.6356C30.5007 32.6069 31.6312 31.0366 32.7103 29.4304C34.0025 27.6059 34.5214 25.8091 34.542 25.7169C34.4998 25.7025 31.0546 24.3936 31.0207 20.434Z" fill="white"/>
<path d="M27.7258 10.7191C28.6257 9.59873 29.2415 8.07456 29.0705 6.52783C27.7681 6.58523 26.1392 7.42471 25.2012 8.52043C24.3713 9.48598 23.63 11.0686 23.8215 12.5569C25.2846 12.6655 26.7868 11.822 27.7258 10.7191Z" fill="white"/>
</g>
</g>
<g id="Download on the">
<path id="D" d="M50.5034 10.4149C50.5034 11.6214 50.14 12.5295 49.4141 13.1394C48.7418 13.7021 47.7863 13.984 46.5486 13.984C45.935 13.984 45.4099 13.9573 44.9702 13.904V7.31225C45.5437 7.22 46.1615 7.17285 46.8287 7.17285C48.0076 7.17285 48.8962 7.42808 49.4954 7.93853C50.1668 8.5156 50.5034 9.34073 50.5034 10.4149ZM49.3657 10.4447C49.3657 9.66258 49.1577 9.06295 48.7418 8.64475C48.3258 8.22758 47.7183 8.01848 46.9183 8.01848C46.5785 8.01848 46.2892 8.04103 46.0493 8.08818V13.0994C46.1821 13.1199 46.4251 13.1291 46.7782 13.1291C47.604 13.1291 48.2414 12.9006 48.6903 12.4434C49.1392 11.9863 49.3657 11.32 49.3657 10.4447Z" fill="white"/>
<path id="o" d="M56.536 11.4685C56.536 12.2116 56.3229 12.8205 55.8966 13.2981C55.4498 13.7891 54.8577 14.0341 54.1185 14.0341C53.406 14.0341 52.8386 13.7993 52.4155 13.3278C51.9933 12.8574 51.7822 12.2639 51.7822 11.5484C51.7822 10.8002 51.9995 10.1862 52.436 9.70959C52.8726 9.23297 53.4595 8.99414 54.1988 8.99414C54.9113 8.99414 55.4837 9.22887 55.9172 9.69934C56.3291 10.1565 56.536 10.7469 56.536 11.4685ZM55.4168 11.5033C55.4168 11.0575 55.32 10.6751 55.1275 10.3564C54.901 9.97096 54.5787 9.77826 54.1596 9.77826C53.7262 9.77826 53.3967 9.97096 53.1702 10.3564C52.9766 10.6751 52.8808 11.0636 52.8808 11.5228C52.8808 11.9687 52.9776 12.351 53.1702 12.6698C53.4039 13.0552 53.7293 13.2479 54.1493 13.2479C54.5612 13.2479 54.8845 13.0521 55.1172 12.6595C55.3169 12.3346 55.4168 11.9492 55.4168 11.5033Z" fill="white"/>
<path id="w" d="M64.6249 9.09253L63.1062 13.9244H62.1177L61.4886 11.8262C61.3291 11.3024 61.1993 10.7817 61.0984 10.2651H61.0789C60.9852 10.7961 60.8554 11.3158 60.6886 11.8262L60.0204 13.9244H59.0206L57.5925 9.09253H58.7014L59.2502 11.3896C59.3831 11.9328 59.4922 12.4504 59.5797 12.9404H59.5993C59.6796 12.5365 59.8124 12.022 59.9998 11.3998L60.6886 9.09355H61.5679L62.2279 11.3506C62.3875 11.901 62.5172 12.431 62.6171 12.9414H62.647C62.7201 12.4443 62.8303 11.9144 62.9765 11.3506L63.5654 9.09355H64.6249V9.09253Z" fill="white"/>
<path id="n" d="M70.2188 13.9245H69.1397V11.157C69.1397 10.3042 68.8144 9.87784 68.1616 9.87784C67.8414 9.87784 67.5829 9.99469 67.3822 10.2294C67.1834 10.4641 67.0825 10.7409 67.0825 11.0576V13.9235H66.0035V10.4734C66.0035 10.049 65.9901 9.58879 65.9644 9.09064H66.9126L66.9631 9.84606H66.993C67.1186 9.61134 67.306 9.41761 67.552 9.26284C67.8445 9.08244 68.1719 8.99121 68.5302 8.99121C68.9832 8.99121 69.3601 9.13676 69.6597 9.42889C70.0324 9.78661 70.2188 10.3206 70.2188 11.0299V13.9245Z" fill="white"/>
<path id="l" d="M73.1945 13.9244H72.1165V6.87549H73.1945V13.9244Z" fill="white"/>
<path id="o_2" d="M79.5473 11.4685C79.5473 12.2116 79.3341 12.8205 78.9079 13.2981C78.461 13.7891 77.8679 14.0341 77.1297 14.0341C76.4162 14.0341 75.8488 13.7993 75.4267 13.3278C75.0045 12.8574 74.7935 12.2639 74.7935 11.5484C74.7935 10.8002 75.0107 10.1862 75.4473 9.70959C75.8838 9.23297 76.4707 8.99414 77.209 8.99414C77.9225 8.99414 78.4939 9.22887 78.9285 9.69934C79.3403 10.1565 79.5473 10.7469 79.5473 11.4685ZM78.427 11.5033C78.427 11.0575 78.3302 10.6751 78.1377 10.3564C77.9122 9.97096 77.5889 9.77826 77.1709 9.77826C76.7364 9.77826 76.4069 9.97096 76.1814 10.3564C75.9878 10.6751 75.8921 11.0636 75.8921 11.5228C75.8921 11.9687 75.9889 12.351 76.1814 12.6698C76.4151 13.0552 76.7405 13.2479 77.1606 13.2479C77.5724 13.2479 77.8947 13.0521 78.1274 12.6595C78.3282 12.3346 78.427 11.9492 78.427 11.5033Z" fill="white"/>
<path id="a" d="M84.7696 13.9244H83.8007L83.7204 13.3678H83.6905C83.359 13.8116 82.8864 14.0341 82.2727 14.0341C81.8145 14.0341 81.4439 13.8875 81.1648 13.5964C80.9116 13.3319 80.7849 13.0029 80.7849 12.6124C80.7849 12.022 81.032 11.572 81.5293 11.2604C82.0256 10.9488 82.7237 10.7961 83.6226 10.8033V10.7131C83.6226 10.0765 83.2869 9.75879 82.6146 9.75879C82.1358 9.75879 81.7136 9.87872 81.3492 10.1165L81.1298 9.41132C81.5808 9.13354 82.1378 8.99414 82.7948 8.99414C84.0633 8.99414 84.6996 9.66039 84.6996 10.9929V12.7723C84.6996 13.2551 84.7232 13.6394 84.7696 13.9244ZM83.6493 12.2639V11.5187C82.4591 11.4982 81.864 11.8231 81.864 12.4925C81.864 12.7446 81.9319 12.9332 82.0709 13.0593C82.2099 13.1854 82.387 13.2479 82.5981 13.2479C82.8349 13.2479 83.0563 13.1731 83.2581 13.0244C83.4609 12.8748 83.5855 12.6852 83.6318 12.4525C83.6432 12.4002 83.6493 12.3367 83.6493 12.2639Z" fill="white"/>
<path id="d" d="M90.9009 13.9244H89.9433L89.8929 13.1485H89.863C89.5572 13.7389 89.0362 14.0341 88.3042 14.0341C87.7193 14.0341 87.2323 13.8055 86.8462 13.3484C86.4601 12.8912 86.2676 12.2977 86.2676 11.569C86.2676 10.7869 86.4766 10.1534 86.8967 9.66964C87.3034 9.21864 87.8017 8.99314 88.3948 8.99314C89.0465 8.99314 89.5027 9.21146 89.7621 9.64914H89.7827V6.87549H90.8628V12.6227C90.8628 13.0931 90.8752 13.5267 90.9009 13.9244ZM89.7827 11.8867V11.0811C89.7827 10.9417 89.7724 10.8289 89.7529 10.7428C89.6921 10.4845 89.5614 10.2672 89.3626 10.0919C89.1619 9.91666 88.9199 9.82851 88.6409 9.82851C88.2383 9.82851 87.9232 9.98739 87.6915 10.3062C87.4619 10.6249 87.3456 11.0319 87.3456 11.529C87.3456 12.0066 87.4558 12.3941 87.6771 12.6924C87.9109 13.0101 88.2259 13.169 88.6203 13.169C88.9745 13.169 89.2576 13.0368 89.4728 12.7713C89.6808 12.5263 89.7827 12.2311 89.7827 11.8867Z" fill="white"/>
<path id="o_3" d="M100.13 11.4685C100.13 12.2116 99.9164 12.8205 99.4901 13.2981C99.0433 13.7891 98.4523 14.0341 97.712 14.0341C97.0005 14.0341 96.4332 13.7993 96.009 13.3278C95.5868 12.8574 95.3757 12.2639 95.3757 11.5484C95.3757 10.8002 95.593 10.1862 96.0295 9.70959C96.4661 9.23297 97.053 8.99414 97.7933 8.99414C98.5048 8.99414 99.0783 9.22887 99.5107 9.69934C99.9226 10.1565 100.13 10.7469 100.13 11.4685ZM99.0114 11.5033C99.0114 11.0575 98.9146 10.6751 98.722 10.3564C98.4945 9.97096 98.1732 9.77826 97.7532 9.77826C97.3207 9.77826 96.9912 9.97096 96.7637 10.3564C96.5701 10.6751 96.4743 11.0636 96.4743 11.5228C96.4743 11.9687 96.5711 12.351 96.7637 12.6698C96.9974 13.0552 97.3228 13.2479 97.7429 13.2479C98.1547 13.2479 98.479 13.0521 98.7117 12.6595C98.9105 12.3346 99.0114 11.9492 99.0114 11.5033Z" fill="white"/>
<path id="n_2" d="M105.932 13.9245H104.854V11.157C104.854 10.3042 104.528 9.87784 103.874 9.87784C103.554 9.87784 103.296 9.99469 103.096 10.2294C102.896 10.4641 102.796 10.7409 102.796 11.0576V13.9235H101.716V10.4734C101.716 10.049 101.704 9.58879 101.678 9.09064H102.625L102.676 9.84606H102.706C102.832 9.61134 103.02 9.41761 103.265 9.26284C103.558 9.08244 103.885 8.99121 104.244 8.99121C104.696 8.99121 105.073 9.13676 105.373 9.42889C105.746 9.78661 105.932 10.3206 105.932 11.0299V13.9245Z" fill="white"/>
<path id="t" d="M113.193 9.89714H112.005V12.2444C112.005 12.8409 112.216 13.1392 112.634 13.1392C112.828 13.1392 112.988 13.1228 113.115 13.089L113.143 13.9039C112.93 13.9838 112.65 14.0238 112.305 14.0238C111.879 14.0238 111.547 13.8946 111.307 13.6363C111.066 13.378 110.947 12.9434 110.947 12.3336V9.89714H110.237V9.09251H110.947V8.20691L112.004 7.88916V9.09149H113.192V9.89714H113.193Z" fill="white"/>
<path id="h" d="M118.906 13.9244H117.826V11.1774C117.826 10.3113 117.5 9.87771 116.849 9.87771C116.348 9.87771 116.006 10.1288 115.819 10.6311C115.787 10.7367 115.768 10.8658 115.768 11.0175V13.9234H114.69V6.87549H115.768V9.78751H115.789C116.129 9.25759 116.616 8.99314 117.247 8.99314C117.694 8.99314 118.064 9.13869 118.357 9.43081C118.722 9.79469 118.906 10.3359 118.906 11.0513V13.9244Z" fill="white"/>
<path id="e" d="M124.798 11.2798C124.798 11.4725 124.784 11.6345 124.758 11.7667H121.522C121.536 12.2444 121.691 12.6082 121.991 12.8604C122.264 13.0859 122.618 13.1986 123.05 13.1986C123.529 13.1986 123.965 13.1228 124.359 12.9701L124.528 13.7163C124.067 13.9151 123.526 14.0145 122.899 14.0145C122.147 14.0145 121.555 13.7942 121.127 13.3534C120.696 12.9127 120.483 12.3212 120.483 11.5791C120.483 10.8504 120.682 10.2436 121.082 9.75976C121.5 9.24316 122.066 8.98486 122.779 8.98486C123.477 8.98486 124.008 9.24316 124.366 9.75976C124.655 10.1698 124.798 10.6771 124.798 11.2798ZM123.769 11.0021C123.777 10.6833 123.706 10.4086 123.56 10.1769C123.372 9.87866 123.087 9.72901 122.701 9.72901C122.349 9.72901 122.062 9.87456 121.842 10.1667C121.663 10.3994 121.557 10.6771 121.522 11.0021H123.769Z" fill="white"/>
</g>
<g id="App Store">
<path id="A" d="M55.2344 32.4471H52.8961L51.6152 28.4404H47.1631L45.943 32.4471H43.6665L48.0774 18.8064H50.8018L55.2344 32.4471ZM51.2291 26.7594L50.0708 23.1975C49.9483 22.8336 49.7187 21.9767 49.3799 20.6278H49.3387C49.2038 21.208 48.9866 22.0649 48.688 23.1975L47.5503 26.7594H51.2291Z" fill="white"/>
<path id="p" d="M66.5778 27.4081C66.5778 29.0809 66.1237 30.4032 65.2156 31.3738C64.4022 32.2379 63.3921 32.6694 62.1864 32.6694C60.885 32.6694 59.9501 32.2041 59.3807 31.2734H59.3395V36.4548H57.1443V25.8491C57.1443 24.7974 57.1165 23.7181 57.063 22.6111H58.9935L59.1161 24.1701H59.1573C59.8893 22.9955 61.0003 22.4092 62.4912 22.4092C63.6567 22.4092 64.6297 22.8674 65.4081 23.7847C66.1886 24.7031 66.5778 25.9106 66.5778 27.4081ZM64.3414 27.4881C64.3414 26.5307 64.1252 25.7415 63.6907 25.1203C63.2161 24.4725 62.5787 24.1486 61.7797 24.1486C61.2381 24.1486 60.746 24.329 60.3063 24.6847C59.8656 25.0434 59.5773 25.5119 59.4425 26.092C59.3745 26.3626 59.3405 26.584 59.3405 26.7583V28.3983C59.3405 29.1137 59.5609 29.7174 60.0016 30.2105C60.4422 30.7035 61.0147 30.9495 61.719 30.9495C62.5458 30.9495 63.1893 30.6317 63.6495 29.9983C64.1108 29.3638 64.3414 28.5274 64.3414 27.4881Z" fill="white"/>
<path id="p_2" d="M77.9418 27.4081C77.9418 29.0809 77.4877 30.4032 76.5785 31.3738C75.7662 32.2379 74.7561 32.6694 73.5504 32.6694C72.2489 32.6694 71.314 32.2041 70.7457 31.2734H70.7045V36.4548H68.5093V25.8491C68.5093 24.7974 68.4815 23.7181 68.428 22.6111H70.3585L70.4811 24.1701H70.5222C71.2533 22.9955 72.3643 22.4092 73.8562 22.4092C75.0207 22.4092 75.9937 22.8674 76.7742 23.7847C77.5515 24.7031 77.9418 25.9106 77.9418 27.4081ZM75.7054 27.4881C75.7054 26.5307 75.4881 25.7415 75.0536 25.1203C74.579 24.4725 73.9437 24.1486 73.1437 24.1486C72.6011 24.1486 72.1099 24.329 71.6693 24.6847C71.2286 25.0434 70.9413 25.5119 70.8064 26.092C70.7395 26.3626 70.7045 26.584 70.7045 26.7583V28.3983C70.7045 29.1137 70.9248 29.7174 71.3635 30.2105C71.8041 30.7025 72.3766 30.9495 73.0829 30.9495C73.9097 30.9495 74.5533 30.6317 75.0135 29.9983C75.4748 29.3638 75.7054 28.5274 75.7054 27.4881Z" fill="white"/>
<path id="S" d="M90.6476 28.6217C90.6476 29.782 90.243 30.726 89.4306 31.4548C88.5379 32.2512 87.2951 32.6489 85.6982 32.6489C84.2237 32.6489 83.0417 32.366 82.147 31.7992L82.6556 29.9778C83.6193 30.5579 84.6768 30.849 85.8289 30.849C86.6557 30.849 87.2992 30.6625 87.7615 30.2914C88.2218 29.9204 88.4514 29.4222 88.4514 28.8011C88.4514 28.2476 88.2619 27.7812 87.882 27.403C87.5041 27.0248 86.873 26.6732 85.9916 26.3483C83.5926 25.4575 82.3941 24.1527 82.3941 22.4369C82.3941 21.3155 82.8142 20.3961 83.6554 19.6806C84.4935 18.9642 85.6117 18.6064 87.0099 18.6064C88.2568 18.6064 89.2926 18.8227 90.1194 19.2542L89.5706 21.0357C88.7984 20.6175 87.9253 20.4084 86.9481 20.4084C86.1759 20.4084 85.5726 20.598 85.1401 20.9752C84.7746 21.3124 84.5913 21.7235 84.5913 22.2103C84.5913 22.7495 84.8003 23.1954 85.2204 23.5459C85.5859 23.8698 86.2501 24.2204 87.2138 24.5986C88.3927 25.0711 89.2586 25.6236 89.8157 26.257C90.3706 26.8884 90.6476 27.6787 90.6476 28.6217Z" fill="white"/>
<path id="t_2" d="M97.9053 24.2512H95.4857V29.0267C95.4857 30.2413 95.912 30.8481 96.7666 30.8481C97.1589 30.8481 97.4842 30.8143 97.7416 30.7466L97.8024 32.4061C97.3699 32.567 96.8005 32.648 96.0952 32.648C95.2283 32.648 94.5508 32.3846 94.0617 31.8587C93.5747 31.3319 93.3297 30.4483 93.3297 29.2071V24.2491H91.8882V22.6091H93.3297V20.8082L95.4857 20.1604V22.6091H97.9053V24.2512Z" fill="white"/>
<path id="o_4" d="M108.823 27.448C108.823 28.9599 108.388 30.2012 107.521 31.1719C106.612 32.1712 105.405 32.6694 103.901 32.6694C102.451 32.6694 101.297 32.1907 100.436 31.2334C99.5754 30.276 99.145 29.0675 99.145 27.611C99.145 26.0868 99.5878 24.8384 100.476 23.8677C101.363 22.896 102.559 22.4102 104.064 22.4102C105.513 22.4102 106.68 22.8888 107.56 23.8472C108.402 24.7769 108.823 25.9772 108.823 27.448ZM106.545 27.5188C106.545 26.6116 106.35 25.8337 105.956 25.1848C105.496 24.3997 104.838 24.0081 103.985 24.0081C103.103 24.0081 102.433 24.4007 101.972 25.1848C101.578 25.8347 101.383 26.625 101.383 27.5598C101.383 28.4669 101.578 29.2449 101.972 29.8927C102.447 30.6778 103.11 31.0694 103.966 31.0694C104.804 31.0694 105.462 30.6696 105.936 29.8722C106.341 29.211 106.545 28.4249 106.545 27.5188Z" fill="white"/>
<path id="r" d="M115.958 24.533C115.741 24.493 115.509 24.4725 115.266 24.4725C114.494 24.4725 113.896 24.7626 113.476 25.3438C113.111 25.8563 112.928 26.5041 112.928 27.2861V32.447H110.733L110.754 25.7087C110.754 24.575 110.726 23.5428 110.672 22.6121H112.584L112.664 24.494H112.725C112.956 23.8473 113.322 23.3266 113.822 22.936C114.311 22.5845 114.84 22.4092 115.409 22.4092C115.612 22.4092 115.795 22.4235 115.958 22.4492V24.533Z" fill="white"/>
<path id="e_2" d="M125.775 27.0636C125.775 27.4551 125.75 27.7852 125.695 28.0548H119.109C119.135 29.0265 119.453 29.7696 120.065 30.2821C120.62 30.7403 121.338 30.9699 122.219 30.9699C123.194 30.9699 124.084 30.8151 124.884 30.5045L125.228 32.0215C124.293 32.4274 123.189 32.6293 121.915 32.6293C120.383 32.6293 119.181 32.1804 118.305 31.2835C117.432 30.3866 116.995 29.1823 116.995 27.6714C116.995 26.1882 117.401 24.9531 118.216 23.9681C119.068 22.9164 120.22 22.3906 121.67 22.3906C123.094 22.3906 124.172 22.9164 124.904 23.9681C125.484 24.8035 125.775 25.8367 125.775 27.0636ZM123.682 26.4968C123.696 25.849 123.553 25.2893 123.256 24.8168C122.876 24.209 122.292 23.9056 121.506 23.9056C120.789 23.9056 120.205 24.2018 119.759 24.7963C119.394 25.2688 119.176 25.8356 119.109 26.4957H123.682V26.4968Z" fill="white"/>
</g>
</g>
</svg>
