<svg width="24" height="24" viewBox="0 0 24 24" fill="none" xmlns="http://www.w3.org/2000/svg">
<path d="M19.18 11.8518L18.441 11.9797L19.18 11.8518ZM18.6156 8.58804L17.8766 8.71584L18.6156 8.58804ZM7.95011 5.21834L7.2029 5.15373H7.2029L7.95011 5.21834ZM7.30038 12.7325L8.04759 12.7971L7.30038 12.7325ZM13.5959 17.4229L14.336 17.3016V17.3016L13.5959 17.4229ZM13.0657 14.1872L13.8058 14.0659V14.0659L13.0657 14.1872ZM7.75841 13.858L7.26882 14.4262H7.26882L7.75841 13.858ZM8.9094 14.8498L9.39899 14.2817L9.39899 14.2817L8.9094 14.8498ZM10.8143 17.773L10.0884 17.9613L10.8143 17.773ZM11.1949 19.2401L11.9209 19.0518L11.9209 19.0518L11.1949 19.2401ZM12.534 19.9485L12.3046 19.2345L12.3046 19.2345L12.534 19.9485ZM12.6499 19.9113L12.8793 20.6253L12.8793 20.6253L12.6499 19.9113ZM10.2895 16.4299L10.951 16.0765L10.2895 16.4299ZM13.5236 19.002L12.7977 18.8137V18.8137L13.5236 19.002ZM11.7393 19.8941L11.4137 20.5697V20.5697L11.7393 19.8941ZM18.441 11.9797L17.8766 8.71584L19.3546 8.46023L19.9191 11.724L18.441 11.9797ZM12.9959 4.75H9.27697V3.25H12.9959V4.75ZM8.69732 5.28295L8.04759 12.7971L6.55317 12.6679L7.2029 5.15373L8.69732 5.28295ZM17.8766 8.71584C17.4842 6.44714 15.4359 4.75 12.9959 4.75V3.25C16.1259 3.25 18.8313 5.43383 19.3546 8.46023L17.8766 8.71584ZM12.8557 17.5441L12.3256 14.3085L13.8058 14.0659L14.336 17.3016L12.8557 17.5441ZM8.248 13.2899L9.39899 14.2817L8.41981 15.418L7.26882 14.4262L8.248 13.2899ZM11.5403 17.5847L11.9209 19.0518L10.4689 19.4284L10.0884 17.9613L11.5403 17.5847ZM12.3046 19.2345L12.4206 19.1972L12.8793 20.6253L12.7634 20.6626L12.3046 19.2345ZM10.951 16.0765C11.2061 16.5541 11.4042 17.0601 11.5403 17.5847L10.0884 17.9613C9.98228 17.5524 9.82764 17.1572 9.62792 16.7833L10.951 16.0765ZM12.4206 19.1972C12.6186 19.1336 12.7538 18.9826 12.7977 18.8137L14.2496 19.1903C14.0719 19.8755 13.548 20.4105 12.8793 20.6253L12.4206 19.1972ZM11.9209 19.0518C11.9375 19.1157 11.9853 19.1801 12.0648 19.2184L11.4137 20.5697C10.9496 20.3461 10.5997 19.9327 10.4689 19.4284L11.9209 19.0518ZM12.0648 19.2184C12.1378 19.2536 12.225 19.26 12.3046 19.2345L12.7634 20.6626C12.3191 20.8053 11.8345 20.7725 11.4137 20.5697L12.0648 19.2184ZM13.7228 12.6626H17.8677V14.1626H13.7228V12.6626ZM14.336 17.3016C14.439 17.9303 14.4096 18.5736 14.2496 19.1903L12.7977 18.8137C12.9052 18.3992 12.925 17.9667 12.8557 17.5441L14.336 17.3016ZM9.27697 4.75C8.97582 4.75 8.72346 4.98075 8.69732 5.28295L7.2029 5.15373C7.29596 4.07747 8.19608 3.25 9.27697 3.25V4.75ZM9.39899 14.2817C9.94534 14.7525 10.5497 15.3254 10.951 16.0765L9.62792 16.7833C9.36462 16.2904 8.94151 15.8676 8.41981 15.418L9.39899 14.2817ZM19.9191 11.724C20.1391 12.9967 19.1604 14.1626 17.8677 14.1626V12.6626C18.2278 12.6626 18.5028 12.3373 18.441 11.9797L19.9191 11.724ZM12.3256 14.3085C12.1845 13.4471 12.8484 12.6626 13.7228 12.6626V14.1626C13.7757 14.1626 13.814 14.1156 13.8058 14.0659L12.3256 14.3085ZM8.04759 12.7971C8.03141 12.9843 8.10615 13.1676 8.248 13.2899L7.26882 14.4262C6.76162 13.9891 6.4955 13.3348 6.55317 12.6679L8.04759 12.7971Z" fill="#1C274C"/>
<path opacity="0.5" d="M5.57708 4.42326L4.82987 4.35865H4.82987L5.57708 4.42326ZM4.7998 13.4125L5.54702 13.4771C5.51242 13.8772 5.16873 14.1791 4.76747 14.1618C4.36621 14.1445 4.0498 13.8141 4.0498 13.4125L4.7998 13.4125ZM6.3243 4.48787L5.54702 13.4771L4.05259 13.3479L4.82987 4.35865L6.3243 4.48787ZM5.5498 4.38964V13.4125H4.0498V4.38964H5.5498ZM4.82987 4.35865C4.81176 4.56812 4.97685 4.74984 5.18917 4.74984V3.24984C5.85807 3.24984 6.38179 3.823 6.3243 4.48787L4.82987 4.35865ZM5.18917 4.74984C5.38915 4.74984 5.5498 4.58777 5.5498 4.38964H4.0498C4.0498 3.76095 4.55911 3.24984 5.18917 3.24984V4.74984Z" fill="#1C274C"/>
</svg>
