<svg width="30" height="30" viewBox="0 0 30 30" fill="none" xmlns="http://www.w3.org/2000/svg">
<path d="M12.5359 9.90909C12.5359 8.85473 13.4868 8 14.6599 8C15.8329 8 16.7839 8.85473 16.7839 9.90909C16.7839 10.4053 16.6046 10.8573 16.2925 11.1968C15.6948 11.8471 14.8015 12.502 14.8015 13.3455V13.6299M14.8015 13.6299C15.533 13.6214 16.2674 13.8246 16.8845 14.2406L24.317 19.2509C25.6234 20.1315 24.9305 22 23.2975 22H6.70254C5.08721 22 4.38322 20.1648 5.65531 19.27L12.751 14.2787C13.3534 13.855 14.076 13.6383 14.8015 13.6299Z" stroke="#1C274C" stroke-width="1.5" stroke-linecap="round"/>
</svg>
