<svg width="24" height="24" viewBox="0 0 24 24" fill="none" xmlns="http://www.w3.org/2000/svg">
<path d="M19.18 12.1482L18.441 12.0203L19.18 12.1482ZM18.6156 15.412L17.8766 15.2842L18.6156 15.412ZM7.95011 18.7817L7.2029 18.8463H7.2029L7.95011 18.7817ZM7.30038 11.2675L8.04759 11.2029L7.30038 11.2675ZM13.5959 6.57714L14.336 6.6984V6.6984L13.5959 6.57714ZM13.0657 9.81278L13.8058 9.93405V9.93405L13.0657 9.81278ZM7.75841 10.142L7.26882 9.57383H7.26882L7.75841 10.142ZM8.9094 9.15016L9.39899 9.71831L9.39899 9.71831L8.9094 9.15016ZM10.8143 6.22699L10.0884 6.03868L10.8143 6.22699ZM11.1949 4.75991L11.9209 4.94823L11.9209 4.94823L11.1949 4.75991ZM12.534 4.05148L12.3046 4.76554L12.3046 4.76554L12.534 4.05148ZM12.6499 4.08874L12.8793 3.37468L12.8793 3.37468L12.6499 4.08874ZM10.2895 7.57009L10.951 7.92347L10.2895 7.57009ZM13.5236 4.99802L12.7977 5.18634V5.18634L13.5236 4.99802ZM11.7393 4.10591L11.4137 3.43027V3.43027L11.7393 4.10591ZM18.441 12.0203L17.8766 15.2842L19.3546 15.5398L19.9191 12.276L18.441 12.0203ZM12.9959 19.25H9.27697V20.75H12.9959V19.25ZM8.69732 18.717L8.04759 11.2029L6.55317 11.3321L7.2029 18.8463L8.69732 18.717ZM17.8766 15.2842C17.4842 17.5529 15.4359 19.25 12.9959 19.25V20.75C16.1259 20.75 18.8313 18.5662 19.3546 15.5398L17.8766 15.2842ZM12.8557 6.45587L12.3256 9.69152L13.8058 9.93405L14.336 6.6984L12.8557 6.45587ZM8.248 10.7101L9.39899 9.71831L8.41981 8.582L7.26882 9.57383L8.248 10.7101ZM11.5403 6.41531L11.9209 4.94823L10.4689 4.57159L10.0884 6.03868L11.5403 6.41531ZM12.3046 4.76554L12.4206 4.8028L12.8793 3.37468L12.7634 3.33742L12.3046 4.76554ZM10.951 7.92347C11.2061 7.44589 11.4042 6.93995 11.5403 6.41531L10.0884 6.03868C9.98228 6.44762 9.82764 6.84283 9.62792 7.21672L10.951 7.92347ZM12.4206 4.8028C12.6186 4.86643 12.7538 5.01736 12.7977 5.18634L14.2496 4.8097C14.0719 4.12446 13.548 3.58949 12.8793 3.37468L12.4206 4.8028ZM11.9209 4.94823C11.9375 4.88426 11.9853 4.81991 12.0648 4.78156L11.4137 3.43027C10.9496 3.65387 10.5997 4.06732 10.4689 4.57159L11.9209 4.94823ZM12.0648 4.78156C12.1378 4.74638 12.225 4.73998 12.3046 4.76554L12.7634 3.33742C12.3191 3.19471 11.8345 3.22747 11.4137 3.43027L12.0648 4.78156ZM13.7228 11.3374H17.8677V9.83736H13.7228V11.3374ZM14.336 6.6984C14.439 6.06969 14.4096 5.42637 14.2496 4.8097L12.7977 5.18634C12.9052 5.60083 12.925 6.03326 12.8557 6.45587L14.336 6.6984ZM9.27697 19.25C8.97582 19.25 8.72346 19.0193 8.69732 18.717L7.2029 18.8463C7.29596 19.9225 8.19608 20.75 9.27697 20.75V19.25ZM9.39899 9.71831C9.94534 9.24751 10.5497 8.67464 10.951 7.92347L9.62792 7.21672C9.36462 7.70964 8.94151 8.13243 8.41981 8.582L9.39899 9.71831ZM19.9191 12.276C20.1391 11.0033 19.1604 9.83736 17.8677 9.83736V11.3374C18.2278 11.3374 18.5028 11.6627 18.441 12.0203L19.9191 12.276ZM12.3256 9.69152C12.1845 10.5529 12.8484 11.3374 13.7228 11.3374V9.83736C13.7757 9.83736 13.814 9.88435 13.8058 9.93405L12.3256 9.69152ZM8.04759 11.2029C8.03141 11.0157 8.10615 10.8324 8.248 10.7101L7.26882 9.57383C6.76162 10.0109 6.4955 10.6652 6.55317 11.3321L8.04759 11.2029Z" fill="#1C274C"/>
<path opacity="0.5" d="M5.57708 19.5767L4.82987 19.6413H4.82987L5.57708 19.5767ZM4.7998 10.5875L5.54702 10.5229C5.51242 10.1228 5.16873 9.82091 4.76747 9.83822C4.36621 9.85554 4.0498 10.1859 4.0498 10.5875L4.7998 10.5875ZM6.3243 19.5121L5.54702 10.5229L4.05259 10.6521L4.82987 19.6413L6.3243 19.5121ZM5.5498 19.6104V10.5875H4.0498V19.6104H5.5498ZM4.82987 19.6413C4.81176 19.4319 4.97685 19.2502 5.18917 19.2502V20.7502C5.85807 20.7502 6.38179 20.177 6.3243 19.5121L4.82987 19.6413ZM5.18917 19.2502C5.38915 19.2502 5.5498 19.4122 5.5498 19.6104H4.0498C4.0498 20.2391 4.55911 20.7502 5.18917 20.7502V19.2502Z" fill="#1C274C"/>
</svg>
