<svg width="139" height="41" viewBox="0 0 139 41" fill="none" xmlns="http://www.w3.org/2000/svg">
<path d="M133.852 40.1555H5.14814C2.31795 40.1555 0 37.8955 0 35.1361V5.01945C0 2.26001 2.31795 1.14441e-05 5.14814 1.14441e-05H133.852C136.682 1.14441e-05 139 2.26001 139 5.01945V35.1361C139 37.8955 136.682 40.1555 133.852 40.1555Z" fill="black"/>
<path d="M133.852 0.804376C136.235 0.804376 138.175 2.69545 138.175 5.01945V35.1361C138.175 37.4601 136.235 39.3512 133.852 39.3512H5.14814C2.76455 39.3512 0.824989 37.4601 0.824989 35.1361V5.01945C0.824989 2.69545 2.76455 0.804376 5.14814 0.804376H133.852ZM133.852 1.14441e-05H5.14814C2.31795 1.14441e-05 0 2.26001 0 5.01945V35.1361C0 37.8955 2.31795 40.1555 5.14814 40.1555H133.852C136.682 40.1555 139 37.8955 139 35.1361V5.01945C139 2.26001 136.682 1.14441e-05 133.852 1.14441e-05Z" fill="#A6A6A6"/>
<path d="M10.7441 7.56773C10.4416 7.87643 10.2666 8.35704 10.2666 8.97945V31.1804C10.2666 31.8028 10.4416 32.2835 10.7441 32.5921L10.8187 32.6599L23.5784 20.2243V19.9306L10.8187 7.49496L10.7441 7.56773Z" fill="url(#paint0_linear_101_689)"/>
<path d="M27.8269 24.3718L23.5784 20.2245V19.9309L27.832 15.7836L27.9273 15.8375L32.9647 18.6321C34.4023 19.4252 34.4023 20.7302 32.9647 21.5283L27.9273 24.3179L27.8269 24.3718Z" fill="url(#paint1_linear_101_689)"/>
<path d="M27.9273 24.3178L23.5785 20.0777L10.7441 32.5924C11.2216 33.0818 12.0003 33.1407 12.8858 32.6513L27.9273 24.3178Z" fill="url(#paint2_linear_101_689)"/>
<path d="M27.9273 15.8377L12.8858 7.50419C12.0003 7.01981 11.2216 7.07879 10.7441 7.56819L23.5785 20.0779L27.9273 15.8377Z" fill="url(#paint3_linear_101_689)"/>
<path d="M48.8223 10.284C48.8223 11.1222 48.5649 11.7936 48.0578 12.2943C47.4748 12.8878 46.7155 13.1865 45.7849 13.1865C44.8956 13.1865 44.1362 12.8828 43.5133 12.2842C42.8891 11.6769 42.5776 10.9315 42.5776 10.0393C42.5776 9.14707 42.8891 8.40169 43.5133 7.79935C44.1362 7.19577 44.8956 6.89209 45.7849 6.89209C46.2277 6.89209 46.6498 6.98118 47.0527 7.14683C47.4542 7.31372 47.7811 7.5396 48.0179 7.81818L47.48 8.34773C47.0668 7.87214 46.5044 7.63748 45.7849 7.63748C45.1363 7.63748 44.5738 7.85833 44.0963 8.30381C43.624 8.75054 43.3872 9.32903 43.3872 10.0393C43.3872 10.7495 43.624 11.333 44.0963 11.7798C44.5738 12.2202 45.1363 12.4461 45.7849 12.4461C46.4735 12.4461 47.0527 12.2202 47.5096 11.7747C47.8107 11.4799 47.9819 11.0733 48.0269 10.5538H45.7849V9.82846H48.776C48.812 9.98532 48.8223 10.1372 48.8223 10.284Z" fill="white" stroke="white" stroke-width="0.16" stroke-miterlimit="10"/>
<path d="M53.5676 7.76939H50.758V9.67677H53.2909V10.4021H50.758V12.3095H53.5676V13.0486H49.9626V7.03027H53.5676V7.76939Z" fill="white" stroke="white" stroke-width="0.16" stroke-miterlimit="10"/>
<path d="M56.9164 13.0486H56.121V7.76939H54.3977V7.03027H58.6411V7.76939H56.9164V13.0486Z" fill="white" stroke="white" stroke-width="0.16" stroke-miterlimit="10"/>
<path d="M61.7119 13.0486V7.03027H62.506V13.0486H61.7119Z" fill="white" stroke="white" stroke-width="0.16" stroke-miterlimit="10"/>
<path d="M66.026 13.0486H65.2371V7.76939H63.5073V7.03027H67.7558V7.76939H66.026V13.0486Z" fill="white" stroke="white" stroke-width="0.16" stroke-miterlimit="10"/>
<path d="M75.7897 12.2742C75.1809 12.8828 74.4267 13.1865 73.5271 13.1865C72.6223 13.1865 71.8681 12.8828 71.2593 12.2742C70.6518 11.6668 70.3494 10.9214 70.3494 10.0393C70.3494 9.15711 70.6518 8.41172 71.2593 7.80437C71.8681 7.19577 72.6223 6.89209 73.5271 6.89209C74.4215 6.89209 75.1758 7.19577 75.7845 7.80939C76.3971 8.42176 76.6996 9.16213 76.6996 10.0393C76.6996 10.9214 76.3971 11.6668 75.7897 12.2742ZM71.8475 11.7697C72.3057 12.2202 72.8629 12.4461 73.5271 12.4461C74.186 12.4461 74.7485 12.2202 75.2015 11.7697C75.6584 11.3192 75.89 10.7407 75.89 10.0393C75.89 9.33781 75.6584 8.75932 75.2015 8.30883C74.7485 7.85833 74.186 7.63246 73.5271 7.63246C72.8629 7.63246 72.3057 7.85833 71.8475 8.30883C71.3906 8.75932 71.1589 9.33781 71.1589 10.0393C71.1589 10.7407 71.3906 11.3192 71.8475 11.7697Z" fill="white" stroke="white" stroke-width="0.16" stroke-miterlimit="10"/>
<path d="M77.8154 13.0486V7.03027H78.7807L81.7821 11.7109H81.8168L81.7821 10.5539V7.03027H82.5762V13.0486H81.7473L78.6044 8.13706H78.5696L78.6044 9.29906V13.0486H77.8154Z" fill="white" stroke="white" stroke-width="0.16" stroke-miterlimit="10"/>
<path d="M70.1536 21.837C67.7353 21.837 65.7597 23.6315 65.7597 26.1073C65.7597 28.5631 67.7353 30.3764 70.1536 30.3764C72.5771 30.3764 74.5527 28.5631 74.5527 26.1073C74.5527 23.6315 72.5771 21.837 70.1536 21.837ZM70.1536 28.6949C68.8267 28.6949 67.6851 27.627 67.6851 26.1073C67.6851 24.5676 68.8267 23.5186 70.1536 23.5186C71.4806 23.5186 72.6273 24.5676 72.6273 26.1073C72.6273 27.627 71.4806 28.6949 70.1536 28.6949ZM60.5665 21.837C58.143 21.837 56.1726 23.6315 56.1726 26.1073C56.1726 28.5631 58.143 30.3764 60.5665 30.3764C62.9887 30.3764 64.9604 28.5631 64.9604 26.1073C64.9604 23.6315 62.9887 21.837 60.5665 21.837ZM60.5665 28.6949C59.2383 28.6949 58.0928 27.627 58.0928 26.1073C58.0928 24.5676 59.2383 23.5186 60.5665 23.5186C61.8934 23.5186 63.035 24.5676 63.035 26.1073C63.035 27.627 61.8934 28.6949 60.5665 28.6949ZM49.1582 23.1459V24.9604H53.6024C53.4724 25.9743 53.1249 26.7197 52.592 27.2392C51.9434 27.8666 50.933 28.5631 49.1582 28.5631C46.4233 28.5631 44.2816 26.411 44.2816 23.7444C44.2816 21.0779 46.4233 18.9258 49.1582 18.9258C50.637 18.9258 51.713 19.4892 52.5071 20.2195L53.8186 18.9408C52.7079 17.9068 51.2304 17.1125 49.1582 17.1125C45.4078 17.1125 42.2559 20.0878 42.2559 23.7444C42.2559 27.4011 45.4078 30.3764 49.1582 30.3764C51.1853 30.3764 52.7079 29.7289 53.9048 28.5142C55.1314 27.3183 55.5136 25.6368 55.5136 24.279C55.5136 23.8574 55.4776 23.4696 55.4132 23.1459H49.1582ZM95.8081 24.5526C95.4465 23.5976 94.3306 21.837 92.0577 21.837C89.8054 21.837 87.9302 23.5675 87.9302 26.1073C87.9302 28.4991 89.7861 30.3764 92.2739 30.3764C94.2855 30.3764 95.4464 29.1805 95.9239 28.484L94.431 27.514C93.9329 28.2243 93.2546 28.6949 92.2739 28.6949C91.2996 28.6949 90.6008 28.2594 90.1529 27.4011L96.0102 25.0382L95.8081 24.5526ZM89.8363 25.9743C89.7861 24.3279 91.1478 23.4847 92.1233 23.4847C92.8878 23.4847 93.5365 23.8574 93.7527 24.3907L89.8363 25.9743ZM85.0755 30.1166H87.0009V17.568H85.0755V30.1166ZM81.9223 22.7882H81.8579C81.4255 22.2888 80.6005 21.837 79.5554 21.837C77.3623 21.837 75.3571 23.7143 75.3571 26.1211C75.3571 28.5142 77.3623 30.3764 79.5554 30.3764C80.6005 30.3764 81.4255 29.9209 81.8579 29.4064H81.9223V30.0187C81.9223 31.6513 81.0278 32.5284 79.585 32.5284C78.4087 32.5284 77.6789 31.7002 77.3778 31.0038L75.7033 31.6852C76.186 32.8171 77.464 34.21 79.585 34.21C81.8425 34.21 83.7473 32.9149 83.7473 29.764V22.0968H81.9223V22.7882ZM79.7202 28.6949C78.3932 28.6949 77.2825 27.6119 77.2825 26.1211C77.2825 24.6166 78.3932 23.5186 79.7202 23.5186C81.0278 23.5186 82.0587 24.6166 82.0587 26.1211C82.0587 27.6119 81.0278 28.6949 79.7202 28.6949ZM104.823 17.568H100.217V30.1166H102.138V25.3619H104.823C106.955 25.3619 109.047 23.8574 109.047 21.4644C109.047 19.0726 106.95 17.568 104.823 17.568ZM104.873 23.6164H102.138V19.3135H104.873C106.306 19.3135 107.125 20.4743 107.125 21.4644C107.125 22.4356 106.306 23.6164 104.873 23.6164ZM116.743 21.8132C115.356 21.8132 113.913 22.4105 113.32 23.7344L115.024 24.4308C115.39 23.7344 116.065 23.5085 116.778 23.5085C117.774 23.5085 118.784 24.092 118.8 25.1223V25.254C118.452 25.0583 117.708 24.7684 116.793 24.7684C114.958 24.7684 113.088 25.7535 113.088 27.5918C113.088 29.2733 114.591 30.3563 116.281 30.3563C117.573 30.3563 118.286 29.7878 118.734 29.1265H118.8V30.0965H120.654V25.2829C120.654 23.058 118.95 21.8132 116.743 21.8132ZM116.511 28.6898C115.883 28.6898 115.008 28.3862 115.008 27.627C115.008 26.6557 116.1 26.283 117.044 26.283C117.89 26.283 118.286 26.465 118.8 26.7046C118.649 27.8666 117.623 28.6898 116.511 28.6898ZM127.411 22.088L125.204 27.5278H125.138L122.856 22.088H120.786L124.214 29.69L122.258 33.9201H124.264L129.548 22.088H127.411ZM110.102 30.1166H112.027V17.568H110.102V30.1166Z" fill="white"/>
<defs>
<linearGradient id="paint0_linear_101_689" x1="22.4455" y1="31.4116" x2="5.60325" y2="14.1375" gradientUnits="userSpaceOnUse">
<stop stop-color="#00A0FF"/>
<stop offset="0.0066" stop-color="#00A1FF"/>
<stop offset="0.2601" stop-color="#00BEFF"/>
<stop offset="0.5122" stop-color="#00D2FF"/>
<stop offset="0.7604" stop-color="#00DFFF"/>
<stop offset="1" stop-color="#00E3FF"/>
</linearGradient>
<linearGradient id="paint1_linear_101_689" x1="34.8367" y1="20.0763" x2="9.92293" y2="20.0763" gradientUnits="userSpaceOnUse">
<stop stop-color="#FFE000"/>
<stop offset="0.4087" stop-color="#FFBD00"/>
<stop offset="0.7754" stop-color="#FFA500"/>
<stop offset="1" stop-color="#FF9C00"/>
</linearGradient>
<linearGradient id="paint2_linear_101_689" x1="25.5626" y1="17.7726" x2="2.7231" y2="-5.65245" gradientUnits="userSpaceOnUse">
<stop stop-color="#FF3A44"/>
<stop offset="1" stop-color="#C31162"/>
</linearGradient>
<linearGradient id="paint3_linear_101_689" x1="7.51348" y1="39.9788" x2="17.7123" y2="29.5185" gradientUnits="userSpaceOnUse">
<stop stop-color="#32A071"/>
<stop offset="0.0685" stop-color="#2DA771"/>
<stop offset="0.4762" stop-color="#15CF74"/>
<stop offset="0.8009" stop-color="#06E775"/>
<stop offset="1" stop-color="#00F076"/>
</linearGradient>
</defs>
</svg>
