<svg width="30" height="30" viewBox="0 0 30 30" fill="none" xmlns="http://www.w3.org/2000/svg">
<path d="M15.0789 6V5.25V6ZM6.67981 14.3333H5.92981H6.67981ZM6.67981 16L6.15157 16.5324C6.44398 16.8225 6.91565 16.8225 7.20805 16.5324L6.67981 16ZM8.88787 14.8657C9.18191 14.574 9.18377 14.0991 8.89203 13.8051C8.60029 13.511 8.12542 13.5092 7.83138 13.8009L8.88787 14.8657ZM5.52824 13.8009C5.2342 13.5092 4.75933 13.511 4.46759 13.8051C4.17585 14.0991 4.17772 14.574 4.47176 14.8657L5.52824 13.8009ZM21.6156 10.3928C21.8325 10.7457 22.2944 10.8558 22.6473 10.6389C23.0001 10.422 23.1103 9.96007 22.8934 9.60721L21.6156 10.3928ZM15.0789 5.25C10.0315 5.25 5.92981 9.3112 5.92981 14.3333H7.42981C7.42981 10.1507 10.8488 6.75 15.0789 6.75V5.25ZM5.92981 14.3333L5.92981 16H7.42981L7.42981 14.3333H5.92981ZM7.20805 16.5324L8.88787 14.8657L7.83138 13.8009L6.15157 15.4676L7.20805 16.5324ZM7.20805 15.4676L5.52824 13.8009L4.47176 14.8657L6.15157 16.5324L7.20805 15.4676ZM22.8934 9.60721C21.287 6.99427 18.3873 5.25 15.0789 5.25V6.75C17.8484 6.75 20.2727 8.20845 21.6156 10.3928L22.8934 9.60721Z" fill="#1C274C"/>
<path opacity="0.5" d="M14.8827 24V24.75V24ZM23.3139 15.6667H24.0639H23.3139ZM23.3139 14L23.8411 13.4666C23.549 13.1778 23.0788 13.1778 22.7867 13.4666L23.3139 14ZM21.1004 15.1333C20.8058 15.4244 20.8031 15.8993 21.0942 16.1939C21.3854 16.4885 21.8603 16.4913 22.1549 16.2001L21.1004 15.1333ZM24.4729 16.2001C24.7675 16.4913 25.2424 16.4885 25.5335 16.1939C25.8247 15.8993 25.822 15.4244 25.5274 15.1332L24.4729 16.2001ZM8.31794 19.6061C8.1004 19.2536 7.6383 19.1442 7.28581 19.3618C6.93331 19.5793 6.82391 20.0414 7.04144 20.3939L8.31794 19.6061ZM14.8827 24.75C19.9451 24.75 24.0639 20.6915 24.0639 15.6667H22.5639C22.5639 19.8466 19.1332 23.25 14.8827 23.25V24.75ZM24.0639 15.6667V14H22.5639V15.6667H24.0639ZM22.7867 13.4666L21.1004 15.1333L22.1549 16.2001L23.8411 14.5334L22.7867 13.4666ZM22.7867 14.5334L24.4729 16.2001L25.5274 15.1332L23.8411 13.4666L22.7867 14.5334ZM7.04144 20.3939C8.65405 23.007 11.564 24.75 14.8827 24.75V23.25C12.1002 23.25 9.66584 21.7903 8.31794 19.6061L7.04144 20.3939Z" fill="#1C274C"/>
</svg>
